G04*
G04 #@! TF.GenerationSoftware,Altium Limited,Altium Designer,24.5.2 (23)*
G04*
G04 Layer_Color=8388736*
%FSLAX44Y44*%
%MOMM*%
G71*
G04*
G04 #@! TF.SameCoordinates,54F6CDA4-3835-4A56-B923-A5E7E985AA1E*
G04*
G04*
G04 #@! TF.FilePolarity,Negative*
G04*
G01*
G75*
%ADD14R,0.8621X0.7350*%
%ADD17R,0.7725X0.6274*%
%ADD20R,0.6153X0.5725*%
%ADD21R,0.5541X0.4627*%
%ADD22R,0.5000X0.4000*%
%ADD26C,1.5240*%
%ADD27R,26.0766X20.4386*%
%ADD28R,24.6010X0.5000*%
%ADD29R,3.5300X17.4383*%
%ADD30R,0.7500X0.9500*%
%ADD31R,0.8700X0.9100*%
%ADD32R,1.6740X1.6740*%
%ADD33R,0.6900X0.7500*%
%ADD34R,1.0500X0.9500*%
%ADD35R,0.9500X0.7500*%
%ADD36R,0.9500X1.0500*%
%ADD37C,1.5500*%
G04:AMPARAMS|DCode=38|XSize=1.55mm|YSize=1.55mm|CornerRadius=0.425mm|HoleSize=0mm|Usage=FLASHONLY|Rotation=90.000|XOffset=0mm|YOffset=0mm|HoleType=Round|Shape=RoundedRectangle|*
%AMROUNDEDRECTD38*
21,1,1.5500,0.7000,0,0,90.0*
21,1,0.7000,1.5500,0,0,90.0*
1,1,0.8500,0.3500,0.3500*
1,1,0.8500,0.3500,-0.3500*
1,1,0.8500,-0.3500,-0.3500*
1,1,0.8500,-0.3500,0.3500*
%
%ADD38ROUNDEDRECTD38*%
%ADD39C,1.4200*%
D14*
X238760Y152596D02*
D03*
Y164904D02*
D03*
D17*
X473710Y93689D02*
D03*
Y104140D02*
D03*
D20*
X423704Y128125D02*
D03*
X432276D02*
D03*
D21*
X460476Y127979D02*
D03*
X453390D02*
D03*
D22*
X342900Y157670D02*
D03*
Y149670D02*
D03*
X314960Y157525D02*
D03*
Y149525D02*
D03*
D26*
X501270Y162400D02*
D03*
D27*
X500000Y448941D02*
D03*
D28*
X499425Y324248D02*
D03*
D29*
X501028Y238080D02*
D03*
D30*
X330050Y113775D02*
D03*
X343050Y129775D02*
D03*
X330050D02*
D03*
X293220Y113775D02*
D03*
X306220Y129775D02*
D03*
X293220D02*
D03*
D31*
X382270Y80225D02*
D03*
Y90025D02*
D03*
X383540Y118145D02*
D03*
Y127945D02*
D03*
D32*
X501270Y162400D02*
D03*
D33*
X483525Y127000D02*
D03*
X475325D02*
D03*
D34*
X341550Y113775D02*
D03*
X304720D02*
D03*
D35*
X254380Y116545D02*
D03*
X238380Y129545D02*
D03*
Y116545D02*
D03*
D36*
X254380Y128045D02*
D03*
D37*
X500000Y316750D02*
D03*
X208280Y159715D02*
D03*
D38*
Y139715D02*
D03*
D39*
X342685Y80225D02*
D03*
X447040Y93835D02*
D03*
X420370Y97645D02*
D03*
M02*
