G04*
G04 #@! TF.GenerationSoftware,Altium Limited,Altium Designer,24.5.2 (23)*
G04*
G04 Layer_Physical_Order=1*
G04 Layer_Color=255*
%FSLAX44Y44*%
%MOMM*%
G71*
G04*
G04 #@! TF.SameCoordinates,54F6CDA4-3835-4A56-B923-A5E7E985AA1E*
G04*
G04*
G04 #@! TF.FilePolarity,Positive*
G04*
G01*
G75*
%ADD12C,0.2000*%
%ADD14R,0.8621X0.7350*%
%ADD15R,0.6000X0.8000*%
%ADD16R,0.7200X0.7600*%
%ADD17R,0.7725X0.6274*%
%ADD18R,1.5240X1.5240*%
%ADD19R,0.5400X0.6000*%
%ADD20R,0.6153X0.5725*%
%ADD21R,0.5541X0.4627*%
%ADD22R,0.5000X0.4000*%
%ADD23R,0.9000X0.8000*%
%ADD24R,0.8000X0.6000*%
%ADD25R,0.8000X0.9000*%
%ADD29R,3.5300X17.4383*%
%ADD40R,26.0770X20.4386*%
%ADD41R,24.6010X0.5000*%
%ADD42C,1.4000*%
G04:AMPARAMS|DCode=43|XSize=1.4mm|YSize=1.4mm|CornerRadius=0.35mm|HoleSize=0mm|Usage=FLASHONLY|Rotation=90.000|XOffset=0mm|YOffset=0mm|HoleType=Round|Shape=RoundedRectangle|*
%AMROUNDEDRECTD43*
21,1,1.4000,0.7000,0,0,90.0*
21,1,0.7000,1.4000,0,0,90.0*
1,1,0.7000,0.3500,0.3500*
1,1,0.7000,0.3500,-0.3500*
1,1,0.7000,-0.3500,-0.3500*
1,1,0.7000,-0.3500,0.3500*
%
%ADD43ROUNDEDRECTD43*%
%ADD44C,1.2700*%
D12*
X282136Y164904D02*
X289560Y157480D01*
X274320Y129395D02*
Y134620D01*
X242570Y142240D02*
X266700D01*
X274320Y134620D01*
X238760Y146050D02*
Y152596D01*
Y129925D02*
Y146050D01*
X242570Y142240D01*
X238380Y129545D02*
X238760Y129925D01*
Y164904D02*
X282136D01*
X215684D02*
X238760D01*
X215543Y165045D02*
X215684Y164904D01*
X473710Y81280D02*
Y93689D01*
X382270Y80225D02*
X405490D01*
X453390Y76200D02*
X468630D01*
X473710Y81280D01*
X447040Y82550D02*
X453390Y76200D01*
X447040Y82550D02*
Y93835D01*
X330050Y92860D02*
Y113775D01*
Y92860D02*
X342685Y80225D01*
X405490D02*
X420370Y95105D01*
X501270Y130430D02*
Y162400D01*
X342755Y149525D02*
X342900Y149670D01*
X314960Y149525D02*
X342755D01*
X314960Y157525D02*
X342755D01*
X342900Y157670D01*
X210214Y159715D02*
X215543Y165045D01*
X208280Y159715D02*
X210214D01*
X289560Y157480D02*
X314915D01*
X314960Y157525D01*
X330050Y113775D02*
X330200Y113625D01*
X485140Y127000D02*
X497840D01*
X501270Y130430D01*
X460476Y127979D02*
X461455Y127000D01*
X473710D01*
Y104140D02*
Y127000D01*
X420370Y95105D02*
Y97645D01*
X381710Y129775D02*
X383540Y127945D01*
X423524D01*
X243840Y98915D02*
X300990D01*
X274320Y123045D02*
Y129395D01*
X238380Y104375D02*
X243840Y98915D01*
X238380Y104375D02*
Y116545D01*
X423524Y127945D02*
X423704Y128125D01*
X432421Y127979D02*
X453390D01*
X432276Y128125D02*
X432421Y127979D01*
X343050Y129775D02*
X381710D01*
X306220D02*
X330050D01*
X208280Y139715D02*
X211201Y136793D01*
X473710Y104140D02*
X474500Y104930D01*
X365740Y117945D02*
X383340D01*
X361570Y113775D02*
X365740Y117945D01*
X341550Y113775D02*
X361570D01*
X343050Y129775D02*
Y148105D01*
X342710Y148445D02*
X343050Y148105D01*
X382270Y90025D02*
X383540Y91295D01*
Y118145D01*
X383340Y117945D02*
X383540Y118145D01*
X283185Y114180D02*
X292815D01*
X293220Y113775D01*
X304720Y102645D02*
Y113775D01*
X274320Y123045D02*
X283185Y114180D01*
X267970Y116695D02*
X274320Y123045D01*
X254530Y116695D02*
X267970D01*
X254380Y116545D02*
X254530Y116695D01*
X211201Y120124D02*
Y136793D01*
X214780Y116545D02*
X238380D01*
X211201Y120124D02*
X214780Y116545D01*
X300990Y98915D02*
X304720Y102645D01*
D14*
X238760Y152596D02*
D03*
Y164904D02*
D03*
D15*
X330050Y113775D02*
D03*
X343050Y129775D02*
D03*
X330050D02*
D03*
X293220Y113775D02*
D03*
X306220Y129775D02*
D03*
X293220D02*
D03*
D16*
X382270Y80225D02*
D03*
Y90025D02*
D03*
X383540Y118145D02*
D03*
Y127945D02*
D03*
D17*
X473710Y93689D02*
D03*
Y104140D02*
D03*
D18*
X501270Y162400D02*
D03*
D19*
X483525Y127000D02*
D03*
X475325D02*
D03*
D20*
X423704Y128125D02*
D03*
X432276D02*
D03*
D21*
X460476Y127979D02*
D03*
X453390D02*
D03*
D22*
X342900Y157670D02*
D03*
Y149670D02*
D03*
X314960Y157525D02*
D03*
Y149525D02*
D03*
D23*
X341550Y113775D02*
D03*
X304720D02*
D03*
D24*
X254380Y116545D02*
D03*
X238380Y129545D02*
D03*
Y116545D02*
D03*
D25*
X254380Y128045D02*
D03*
D29*
X501028Y238080D02*
D03*
D40*
X500002Y448941D02*
D03*
D41*
X499425Y324248D02*
D03*
D42*
X500000Y316750D02*
D03*
X208280Y159715D02*
D03*
D43*
Y139715D02*
D03*
D44*
X342685Y80225D02*
D03*
X447040Y93835D02*
D03*
X420370Y97645D02*
D03*
M02*
