G04*
G04 #@! TF.GenerationSoftware,Altium Limited,Altium Designer,24.5.2 (23)*
G04*
G04 Layer_Color=65535*
%FSLAX44Y44*%
%MOMM*%
G71*
G04*
G04 #@! TF.SameCoordinates,54F6CDA4-3835-4A56-B923-A5E7E985AA1E*
G04*
G04*
G04 #@! TF.FilePolarity,Positive*
G04*
G01*
G75*
%ADD10C,0.2500*%
%ADD11C,0.1000*%
%ADD12C,0.2000*%
%ADD13C,0.2540*%
D10*
X445683Y127979D02*
G03*
X445683Y127979I-1250J0D01*
G01*
X209530Y123215D02*
G03*
X209530Y123215I-1250J0D01*
G01*
X344150Y142170D02*
G03*
X344150Y142170I-1250J0D01*
G01*
X474960Y114277D02*
G03*
X474960Y114277I-1250J0D01*
G01*
X316210Y142025D02*
G03*
X316210Y142025I-1250J0D01*
G01*
D11*
X323550Y113775D02*
G03*
X323550Y113775I-500J0D01*
G01*
X254880Y109545D02*
G03*
X254880Y109545I-500J0D01*
G01*
X286720Y113775D02*
G03*
X286720Y113775I-500J0D01*
G01*
D12*
X230260Y151250D02*
Y166250D01*
X247260Y151250D02*
Y166250D01*
X420628Y121262D02*
X435352D01*
X420628Y134987D02*
X435352D01*
X450619Y134293D02*
X463247D01*
X450619Y121665D02*
X463247D01*
X197530Y127715D02*
X219030D01*
Y171715D01*
X197530D02*
X219030D01*
X197530Y127715D02*
Y171715D01*
X349320Y148420D02*
Y158920D01*
X336400Y148420D02*
Y158920D01*
X481572Y90552D02*
Y107277D01*
X465848Y90552D02*
Y107277D01*
X321380Y148275D02*
Y158775D01*
X308460Y148275D02*
Y158775D01*
D13*
X372110Y558800D02*
Y568957D01*
X377188Y574035D01*
X382267Y568957D01*
Y558800D01*
Y566418D01*
X372110D01*
X387345Y558800D02*
X392423D01*
X389884D01*
Y574035D01*
X387345Y571496D01*
X205103Y185210D02*
Y193208D01*
X209102D01*
X210435Y191875D01*
Y189209D01*
X209102Y187876D01*
X205103D01*
X213101Y185210D02*
X215767D01*
X214434D01*
Y193208D01*
X213101Y191875D01*
X429260Y147300D02*
X427927Y148633D01*
X425261D01*
X423928Y147300D01*
Y141969D01*
X425261Y140636D01*
X427927D01*
X429260Y141969D01*
X431926Y140636D02*
X434592D01*
X433259D01*
Y148633D01*
X431926Y147300D01*
X231902Y178308D02*
Y186305D01*
X235901D01*
X237234Y184972D01*
Y182307D01*
X235901Y180974D01*
X231902D01*
X234568D02*
X237234Y178308D01*
X239899D02*
X242565D01*
X241232D01*
Y186305D01*
X239899Y184972D01*
X288227Y139574D02*
Y144906D01*
X286894Y146239D01*
X284228D01*
X282896Y144906D01*
Y139574D01*
X284228Y138241D01*
X286894D01*
X285561Y140907D02*
X288227Y138241D01*
X286894D02*
X288227Y139574D01*
X290893Y144906D02*
X292226Y146239D01*
X294892D01*
X296224Y144906D01*
Y143573D01*
X294892Y142240D01*
X293559D01*
X294892D01*
X296224Y140907D01*
Y139574D01*
X294892Y138241D01*
X292226D01*
X290893Y139574D01*
X223457Y104014D02*
Y109346D01*
X222124Y110679D01*
X219458D01*
X218125Y109346D01*
Y104014D01*
X219458Y102681D01*
X222124D01*
X220791Y105347D02*
X223457Y102681D01*
X222124D02*
X223457Y104014D01*
X231455Y102681D02*
X226123D01*
X231455Y108013D01*
Y109346D01*
X230122Y110679D01*
X227456D01*
X226123Y109346D01*
X317500Y119254D02*
Y124586D01*
X316167Y125919D01*
X313501D01*
X312168Y124586D01*
Y119254D01*
X313501Y117921D01*
X316167D01*
X314834Y120587D02*
X317500Y117921D01*
X316167D02*
X317500Y119254D01*
X320166Y117921D02*
X322832D01*
X321499D01*
Y125919D01*
X320166Y124586D01*
X497719Y108526D02*
X489721D01*
Y103195D01*
Y96530D02*
X497719D01*
X493720Y100529D01*
Y95197D01*
X447995Y148633D02*
Y140636D01*
X453327D01*
X455993Y147300D02*
X457326Y148633D01*
X459992D01*
X461325Y147300D01*
Y145968D01*
X459992Y144635D01*
X458659D01*
X459992D01*
X461325Y143302D01*
Y141969D01*
X459992Y140636D01*
X457326D01*
X455993Y141969D01*
X334966Y175449D02*
Y167451D01*
X340297D01*
X348294D02*
X342963D01*
X348294Y172783D01*
Y174116D01*
X346962Y175449D01*
X344296D01*
X342963Y174116D01*
X300738Y174033D02*
Y166036D01*
X306070D01*
X308736D02*
X311402D01*
X310069D01*
Y174033D01*
X308736Y172700D01*
X396177Y95376D02*
X394844Y96709D01*
X392178D01*
X390845Y95376D01*
Y90044D01*
X392178Y88711D01*
X394844D01*
X396177Y90044D01*
X404174Y96709D02*
X398843D01*
Y92710D01*
X401509Y94043D01*
X402842D01*
X404174Y92710D01*
Y90044D01*
X402842Y88711D01*
X400176D01*
X398843Y90044D01*
X398717Y119360D02*
X397384Y120693D01*
X394718D01*
X393386Y119360D01*
Y114029D01*
X394718Y112696D01*
X397384D01*
X398717Y114029D01*
X405382Y112696D02*
Y120693D01*
X401383Y116695D01*
X406715D01*
X478092Y144906D02*
X476759Y146239D01*
X474093D01*
X472761Y144906D01*
Y139574D01*
X474093Y138241D01*
X476759D01*
X478092Y139574D01*
X486090Y138241D02*
X480758D01*
X486090Y143573D01*
Y144906D01*
X484757Y146239D01*
X482091D01*
X480758Y144906D01*
M02*
